<svg width="127" height="126" viewBox="0 0 127 126" xmlns="http://www.w3.org/2000/svg"><title>instagram</title><path d="M63.5 30.656c5.812 0 11.203 1.454 16.172 4.36 4.968 2.906 8.906 6.844 11.812 11.812 2.906 4.969 4.36 10.36 4.36 16.172 0 5.813-1.454 11.203-4.36 16.172-2.906 4.969-6.844 8.906-11.812 11.812-4.97 2.907-10.36 4.36-16.172 4.36-5.813 0-11.203-1.453-16.172-4.36-4.969-2.906-8.906-6.843-11.812-11.812-2.907-4.969-4.36-10.36-4.36-16.172 0-5.812 1.453-11.203 4.36-16.172 2.906-4.968 6.843-8.906 11.812-11.812 4.969-2.906 10.36-4.36 16.172-4.36zm0 53.438c5.812 0 10.781-2.063 14.906-6.188S84.594 68.813 84.594 63c0-5.812-2.063-10.781-6.188-14.906s-9.094-6.188-14.906-6.188c-5.813 0-10.781 2.063-14.906 6.188S42.406 57.188 42.406 63c0 5.813 2.063 10.781 6.188 14.906s9.093 6.188 14.906 6.188zm41.344-54.844c-.188 2.063-.985 3.844-2.391 5.344-1.406 1.5-3.14 2.25-5.203 2.25s-3.844-.75-5.344-2.25c-1.5-1.5-2.25-3.281-2.25-5.344 0-2.062.75-3.844 2.25-5.344 1.5-1.5 3.281-2.25 5.344-2.25 2.062 0 3.844.75 5.344 2.25 1.5 1.5 2.25 3.282 2.25 5.344zm21.375 7.594c.187 5.25.281 13.969.281 26.156 0 12.188-.14 20.953-.422 26.297-.281 5.344-1.078 9.984-2.39 13.922-1.688 4.687-4.266 8.765-7.735 12.234-3.469 3.469-7.547 6.047-12.234 7.734-3.938 1.313-8.578 2.11-13.922 2.391-5.344.281-14.11.422-26.297.422-12.187 0-20.953-.14-26.297-.422-5.344-.281-9.984-1.172-13.922-2.672-4.687-1.5-8.765-3.984-12.234-7.453-3.469-3.469-6.047-7.547-7.735-12.234C2 99.28 1.204 94.64.922 89.297.64 83.953.5 75.187.5 63c0-12.187.14-20.953.422-26.297C1.203 31.36 2 26.72 3.312 22.781 5 18.094 7.579 14.016 11.047 10.547 14.516 7.078 18.594 4.5 23.28 2.813 27.22 1.5 31.86.703 37.203.423 42.547.14 51.313 0 63.5 0c12.187 0 20.953.14 26.297.422 5.344.281 9.984 1.078 13.922 2.39 4.687 1.688 8.765 4.266 12.234 7.735 3.469 3.469 6.047 7.547 7.734 12.234 1.313 3.938 2.157 8.625 2.532 14.063zm-13.5 63.281c1.124-3.187 1.874-8.25 2.25-15.187.187-4.125.28-9.938.28-17.438v-9c0-7.687-.093-13.5-.28-17.437-.376-7.125-1.126-12.188-2.25-15.188-2.25-5.812-6.282-9.844-12.094-12.094-3-1.125-8.063-1.875-15.188-2.25-4.125-.187-9.937-.28-17.437-.28h-9c-7.5 0-13.313.093-17.438.28-6.937.375-12 1.125-15.187 2.25-5.813 2.25-9.844 6.282-12.094 12.094-1.125 3-1.875 8.063-2.25 15.188-.187 4.125-.281 9.937-.281 17.437v9c0 7.5.094 13.313.281 17.438.375 6.937 1.125 12 2.25 15.187 2.438 5.813 6.469 9.844 12.094 12.094 3.187 1.125 8.25 1.875 15.187 2.25 4.125.187 9.938.281 17.438.281h9c7.687 0 13.5-.094 17.437-.281 7.125-.375 12.188-1.125 15.188-2.25 5.812-2.438 9.843-6.469 12.093-12.094z" fill-rule="evenodd"/></svg>