<svg width="21" height="21" viewBox="0 0 21 21" xmlns="http://www.w3.org/2000/svg"><title>instagram-icon</title><path d="M14 10.5C14 8.572 12.428 7 10.5 7A3.506 3.506 0 0 0 7 10.5c0 1.928 1.572 3.5 3.5 3.5s3.5-1.572 3.5-3.5zm1.886 0a5.38 5.38 0 0 1-5.386 5.386A5.38 5.38 0 0 1 5.114 10.5 5.38 5.38 0 0 1 10.5 5.114a5.38 5.38 0 0 1 5.386 5.386zm1.477-5.605c0 .697-.56 1.258-1.258 1.258-.697 0-1.258-.56-1.258-1.258 0-.697.56-1.258 1.258-1.258.697 0 1.258.56 1.258 1.258zM10.5 1.887c-1.531 0-4.812-.123-6.193.424a3.357 3.357 0 0 0-1.203.793c-.369.37-.601.725-.793 1.203-.547 1.38-.424 4.662-.424 6.193 0 1.531-.123 4.812.424 6.193.192.478.424.834.793 1.203.37.369.725.601 1.203.793 1.38.547 4.662.424 6.193.424 1.531 0 4.812.123 6.193-.424a3.357 3.357 0 0 0 1.203-.793c.369-.37.601-.725.793-1.203.547-1.38.424-4.662.424-6.193 0-1.531.123-4.812-.424-6.193a3.357 3.357 0 0 0-.793-1.203 3.357 3.357 0 0 0-1.203-.793c-1.38-.547-4.662-.424-6.193-.424zM21 10.5c0 1.45.013 2.885-.07 4.334-.081 1.681-.464 3.171-1.694 4.402-1.23 1.23-2.72 1.613-4.402 1.695-1.45.082-2.885.068-4.334.068-1.45 0-2.885.014-4.334-.068-1.681-.082-3.171-.465-4.402-1.695-1.23-1.23-1.613-2.72-1.695-4.402-.082-1.45-.068-2.885-.068-4.334 0-1.45-.014-2.885.068-4.334.082-1.681.465-3.171 1.695-4.402C2.994.534 4.484.151 6.166.07 7.616-.013 9.051.001 10.5.001c1.45 0 2.885-.014 4.334.068 1.681.082 3.171.465 4.402 1.695 1.23 1.23 1.613 2.72 1.695 4.402.082 1.45.068 2.885.068 4.334z" fill-rule="evenodd"/></svg>