<svg width="21" height="20" viewBox="0 0 21 20" xmlns="http://www.w3.org/2000/svg"><title>linkedin-icon</title><path d="M4.771 6.499V20H.26V6.499h4.51zm.288-4.17c.013 1.295-.971 2.33-2.543 2.33h-.028C.971 4.66 0 3.624 0 2.33 0 1.01 1.012 0 2.543 0c1.545 0 2.502 1.008 2.516 2.33zm6.699 6.089c.593-.925 1.664-2.233 4.06-2.233C18.785 6.185 21 8.12 21 12.262V20h-4.498v-7.22c0-1.813-.656-3.052-2.283-3.052-1.244 0-1.983.83-2.31 1.634-.11.3-.151.695-.151 1.104V20H7.26c.054-12.234 0-13.501 0-13.501h4.498v1.919z" fill-rule="evenodd"/></svg>