<svg class="header__logo" viewBox="0 0 96 96" xmlns="http://www.w3.org/2000/svg" xmlns:xlink="http://www.w3.org/1999/xlink"><title>logo</title><defs><circle id="a" cx="48" cy="48" r="25.263"/></defs><g fill="none" fill-rule="evenodd"><path d="M54.316 0v7.65h-5.053v10.034h-7.579V0h12.632zm32.091 18.525l-5.41 5.409-.485-.486-3.087-3.087-7.095 7.096-5.36-5.36L77.476 9.594l8.932 8.932zM96 54.315h-7.65v-5.052H78.316v-7.579H96v12.632zM77.475 86.408l-5.409-5.41.486-.485 3.087-3.087-7.096-7.095 5.36-5.36 12.504 12.505-8.932 8.932zM41.685 96v-7.65h5.052V78.316h7.579V96H41.684zM9.592 77.475l5.41-5.409.485.486 3.087 3.087 7.095-7.096 5.36 5.36-12.505 12.504-8.932-8.932zM0 41.685h7.65v5.052h10.034v7.579H0V41.684zM18.525 9.592l5.409 5.41-.486.485-3.087 3.087 7.096 7.095-5.36 5.36L9.594 18.524l8.932-8.932z" fill="#1A1A1A"/><use fill="#FDEE4B" xlink:href="#a"/><circle stroke="#1A1A1A" stroke-width="7.579" cx="48" cy="48" r="21.474"/></g></svg>