<svg width="145" height="118" viewBox="0 0 145 118" xmlns="http://www.w3.org/2000/svg"><title>twitter</title><path d="M129.594 29.75c.187.75.281 1.969.281 3.656 0 13.5-3.281 26.532-9.844 39.094-6.75 13.313-16.219 23.906-28.406 31.781-13.312 8.813-28.594 13.219-45.844 13.219-16.5 0-31.593-4.406-45.281-13.219 2.062.188 4.406.282 7.031.282 13.688 0 25.969-4.22 36.844-12.657-6.562 0-12.328-1.922-17.297-5.765-4.969-3.844-8.39-8.672-10.265-14.485a53.8 53.8 0 0 0 5.343.282c2.625 0 5.25-.282 7.875-.844-6.75-1.5-12.375-4.969-16.875-10.406-4.5-5.438-6.75-11.625-6.75-18.563v-.562c4.125 2.437 8.531 3.75 13.219 3.937-3.938-2.812-7.125-6.375-9.563-10.687C7.626 30.5 6.406 25.766 6.406 20.61c0-5.157 1.407-10.079 4.219-14.766 7.313 9.187 16.266 16.5 26.86 21.937 10.593 5.438 21.89 8.438 33.89 9-.375-2.25-.563-4.5-.563-6.75 0-5.25 1.313-10.171 3.938-14.765 2.625-4.594 6.188-8.203 10.688-10.828C89.938 1.813 94.811.5 100.061.5c4.313 0 8.297.844 11.954 2.532a33.401 33.401 0 0 1 9.703 6.75c6.75-1.313 13.031-3.657 18.844-7.032-2.25 6.938-6.563 12.375-12.938 16.313 5.625-.75 11.25-2.344 16.875-4.782a64.915 64.915 0 0 1-14.906 15.47z" fill-rule="evenodd"/></svg>