<svg width="21" height="17" viewBox="0 0 21 17" xmlns="http://www.w3.org/2000/svg"><title>twitter-icon</title><path d="M21 2.019a9.236 9.236 0 0 1-2.159 2.218c.014.186.014.372.014.558 0 5.67-4.33 12.205-12.246 12.205A12.19 12.19 0 0 1 0 15.074c.346.04.68.053 1.04.053a8.637 8.637 0 0 0 5.343-1.832 4.31 4.31 0 0 1-4.024-2.975c.266.04.532.066.812.066.387 0 .773-.053 1.133-.146A4.294 4.294 0 0 1 .853 6.03v-.053a4.347 4.347 0 0 0 1.945.544A4.283 4.283 0 0 1 1.466.784a12.247 12.247 0 0 0 8.874 4.489 4.827 4.827 0 0 1-.106-.983A4.295 4.295 0 0 1 14.537 0a4.3 4.3 0 0 1 3.145 1.355A8.49 8.49 0 0 0 20.414.319a4.28 4.28 0 0 1-1.892 2.364A8.651 8.651 0 0 0 21 2.019z" fill-rule="evenodd"/></svg>